<svg xmlns="http://www.w3.org/2000/svg" width="1200" height="630" viewBox="0 0 1200 630">
  <!-- White background -->
  <rect x="0" y="0" width="1200" height="630" fill="#FFFFFF"/>

  <!-- Grid lines -->
  <g stroke="#2AA0E6" stroke-width="1" opacity="0.07">
    <line x1="48" y1="0" x2="48" y2="630"/><line x1="96" y1="0" x2="96" y2="630"/>
    <line x1="144" y1="0" x2="144" y2="630"/><line x1="192" y1="0" x2="192" y2="630"/>
    <line x1="240" y1="0" x2="240" y2="630"/><line x1="288" y1="0" x2="288" y2="630"/>
    <line x1="336" y1="0" x2="336" y2="630"/><line x1="384" y1="0" x2="384" y2="630"/>
    <line x1="432" y1="0" x2="432" y2="630"/><line x1="480" y1="0" x2="480" y2="630"/>
    <line x1="528" y1="0" x2="528" y2="630"/><line x1="576" y1="0" x2="576" y2="630"/>
    <line x1="624" y1="0" x2="624" y2="630"/><line x1="672" y1="0" x2="672" y2="630"/>
    <line x1="720" y1="0" x2="720" y2="630"/><line x1="768" y1="0" x2="768" y2="630"/>
    <line x1="816" y1="0" x2="816" y2="630"/><line x1="864" y1="0" x2="864" y2="630"/>
    <line x1="912" y1="0" x2="912" y2="630"/><line x1="960" y1="0" x2="960" y2="630"/>
    <line x1="1008" y1="0" x2="1008" y2="630"/><line x1="1056" y1="0" x2="1056" y2="630"/>
    <line x1="1104" y1="0" x2="1104" y2="630"/><line x1="1152" y1="0" x2="1152" y2="630"/>
    <line x1="0" y1="48" x2="1200" y2="48"/><line x1="0" y1="96" x2="1200" y2="96"/>
    <line x1="0" y1="144" x2="1200" y2="144"/><line x1="0" y1="192" x2="1200" y2="192"/>
    <line x1="0" y1="240" x2="1200" y2="240"/><line x1="0" y1="288" x2="1200" y2="288"/>
    <line x1="0" y1="336" x2="1200" y2="336"/><line x1="0" y1="384" x2="1200" y2="384"/>
    <line x1="0" y1="432" x2="1200" y2="432"/><line x1="0" y1="480" x2="1200" y2="480"/>
    <line x1="0" y1="528" x2="1200" y2="528"/><line x1="0" y1="576" x2="1200" y2="576"/>
  </g>

  <!-- Soft blue glow -->
  <ellipse cx="600" cy="315" rx="300" ry="170" fill="#2AA0E6" opacity="0.04"/>

  <!-- Logo bars -->
  <rect x="410" y="278" width="56" height="17" rx="8.5" fill="#2AA0E6"/>
  <rect x="410" y="301" width="84" height="17" rx="8.5" fill="#006AAE"/>
  <rect x="410" y="324" width="112" height="17" rx="8.5" fill="#003263"/>

  <!-- SWIFT STACK text -->
  <text x="540" y="318" font-family="system-ui, -apple-system, sans-serif" font-weight="700" font-size="42" fill="#0F172A" dominant-baseline="central">SWIFT STACK</text>
</svg>
